# xmcd
#
# Track frame offsets: 
#        187
#        12714
#        27709
#        43744
#        67567
#        94714
#        110107
#        122369
#        143144
#        161632
#        172057
#        201154
#        225674
#        245112
#        263079
#        282549
#
# Disc length: 4472 seconds
#
# Revision: 12
# Processed by: cddbd v1.5.2PL0 Copyright (c) Steve Scherf et al.
# Submitted via: ExactAudioCopy v1.0b2
#
DISCID=ec117610
DTITLE=Louis Armstrong - Louis Armstrong Meets Oscar Peterson
DYEAR=1957
DGENRE=Jazz
TTITLE0=That Old Feeling
TTITLE1=Let's Fall in Love
TTITLE2=I'll Never Be the Same
TTITLE3=Blues in the Night (My Mama Done Tol' Me)
TTITLE4=How Long Has This Been Going On?
TTITLE5=I Was Doing All Right
TTITLE6=What's New?
TTITLE7=Moon Song
TTITLE8=Just One of Those Things
TTITLE9=There's No You
TTITLE10=You Go to My Head
TTITLE11=Sweet Lorraine
TTITLE12=I Get a Kick Out of You
TTITLE13=Makin' Whoopee
TTITLE14=Willow Weep for Me
TTITLE15=Let's Do It
EXTD=
EXTT0=
EXTT1=
EXTT2=
EXTT3=
EXTT4=
EXTT5=
EXTT6=
EXTT7=
EXTT8=
EXTT9=
EXTT10=
EXTT11=
EXTT12=
EXTT13=
EXTT14=
EXTT15=
PLAYORDER=
